<svg xmlns="http://www.w3.org/2000/svg" shape-rendering="crispEdges" viewBox="0 -0.5 32 32"><path stroke="#203c56" d="M10 0h12M10 1h12M6 2h4m12 0h4M6 3h4m12 0h4M4 4h2m6 0h8m6 0h2M4 5h2m6 0h8m6 0h2M2 6h2m4 0h4m8 0h4m4 0h2M2 7h2m4 0h4m8 0h4m4 0h2M2 8h2m2 0h2m16 0h2m2 0h2M2 9h2m2 0h2m16 0h2m2 0h2M0 10h2m4 0h2m16 0h2m4 0h2M0 11h2m4 0h2m16 0h2m4 0h2M0 12h2m2 0h2m20 0h2m2 0h2M0 13h2m2 0h2m20 0h2m2 0h2M0 14h2m2 0h2m20 0h2m2 0h2M0 15h2m2 0h2m20 0h2m2 0h2M0 16h2m2 0h2m20 0h2m2 0h2M0 17h2m2 0h2m20 0h2m2 0h2M0 18h2m2 0h2m20 0h2m2 0h2M0 19h2m2 0h2m20 0h2m2 0h2M0 20h2m4 0h2m16 0h2m4 0h2M0 21h2m4 0h2m16 0h2m4 0h2M2 22h2m2 0h2m16 0h2m2 0h2M2 23h2m2 0h2m16 0h2m2 0h2M2 24h2m4 0h4m8 0h4m4 0h2M2 25h2m4 0h4m8 0h4m4 0h2M4 26h2m6 0h8m6 0h2M4 27h2m6 0h8m6 0h2M6 28h4m12 0h4M6 29h4m12 0h4m-16 1h12m-12 1h12"/><path stroke="#ffaa5e" d="M10 2h12M10 3h12M6 4h4m12 0h4M6 5h4m12 0h4M4 6h2m20 0h2M4 7h2m20 0h2M4 8h2m20 0h2M4 9h2m20 0h2M2 10h2m24 0h2M2 11h2m24 0h2M2 12h2m24 0h2M2 13h2m24 0h2M2 14h2m24 0h2M2 15h2m24 0h2M2 16h2m24 0h2M2 17h2m24 0h2M2 18h2m24 0h2M2 19h2m24 0h2M4 20h2m20 0h2M4 21h2m20 0h2M4 22h2m20 0h2M4 23h2m20 0h2M6 24h2m16 0h2M6 25h2m16 0h2M8 26h4m8 0h4M8 27h4m8 0h4m-12 1h8m-8 1h8"/><path stroke="#d08159" d="M10 4h2m8 0h2M10 5h2m8 0h2M6 6h2m16 0h2M6 7h2m16 0h2M4 10h2m20 0h2M4 11h2m20 0h2M2 20h2m24 0h2M2 21h2m24 0h2M4 24h2m20 0h2M4 25h2m20 0h2M6 26h2m16 0h2M6 27h2m16 0h2m-16 1h2m8 0h2m-12 1h2m8 0h2"/><path stroke="rgba(83,77,105,0.5058823529411764)" d="M12 6h8M8 8h4m8 0h4M8 9h1m14 0h1M8 10h1m14 0h1M8 11h1m14 0h1M6 12h1m18 0h1M6 13h1m18 0h1M6 14h1m18 0h1M6 15h1m18 0h1M6 16h1m18 0h1M6 17h1m18 0h1M6 18h1m18 0h1M6 19h1m18 0h1M8 20h1m14 0h1M8 21h1m14 0h1M8 22h1m14 0h1M8 23h4m8 0h4m-12 2h8"/></svg>