<svg xmlns="http://www.w3.org/2000/svg" viewBox="0 -0.5 32 32" shape-rendering="crispEdges">
<metadata>Made with Pixels to Svg https://codepen.io/shshaw/pen/XbxvNj</metadata>
<path stroke="#bfce95" d="M18 11h4M18 12h4M18 13h4M18 14h4M14 15h12M14 16h12M14 17h12M14 18h12M18 19h4M18 20h4M18 21h4M18 22h4" />
<path stroke="#ffd4a3" d="M8 12h10M22 12h2M8 13h1M11 13h1M14 13h1M23 13h1M8 14h1M10 14h2M14 14h1M16 14h2M23 14h1M8 15h1M11 15h1M8 16h1M10 16h3M8 17h6" />
<path stroke="#d08159" d="M9 13h2M12 13h2M15 13h3M22 13h1M9 14h1M12 14h2M15 14h1M22 14h1M9 15h2M12 15h2M9 16h1M13 16h1M8 18h6M8 19h6" />
<path stroke="#544e68" d="M14 19h4M22 19h4M14 20h4M22 20h4M14 21h4M22 21h4M18 23h4M18 24h4M18 25h4" />
</svg>