<svg xmlns="http://www.w3.org/2000/svg" viewBox="0 -0.5 32 32" shape-rendering="crispEdges">
<metadata>Made with Pixels to Svg https://codepen.io/shshaw/pen/XbxvNj</metadata>
<path stroke="#7faf54" d="M18 12h4M18 13h4M18 14h4M18 15h4M14 16h12M14 17h12M14 18h12M14 19h12M18 20h4M18 21h4M18 22h4M18 23h4" />
<path stroke="#ffaa5e" d="M8 13h10M22 13h2M8 14h1M11 14h1M14 14h1M23 14h1M8 15h1M10 15h2M14 15h1M16 15h2M23 15h1M8 16h1M11 16h1M8 17h1M10 17h3M8 18h6" />
<path stroke="#d08159" d="M9 14h2M12 14h2M15 14h3M22 14h1M9 15h1M12 15h2M15 15h1M22 15h1M9 16h2M12 16h2M9 17h1M13 17h1M8 19h6" />
<path stroke="#544e68" d="M14 20h4M22 20h4M14 21h4M22 21h4M18 24h4M18 25h4" />
</svg>