<svg xmlns="http://www.w3.org/2000/svg" viewBox="0 -0.5 32 32" shape-rendering="crispEdges">
<metadata>Made with Pixels to Svg https://codepen.io/shshaw/pen/XbxvNj</metadata>
<path stroke="#ffd4a3" d="M10 7h10M8 8h4M18 8h3M11 9h1M13 9h4M20 9h2M11 10h1M18 10h2M21 10h1M11 11h9M21 11h1M11 12h2M19 12h1M21 12h1M11 13h2M14 13h4M19 13h1M21 13h1M11 14h2M19 14h1M21 14h1M11 15h9M21 15h1M11 16h1M17 16h1M19 16h1M21 16h1M11 17h1M13 17h3M21 17h1M11 18h1M17 18h1M19 18h1M11 19h9M11 20h7M12 21h6" />
<path stroke="#d08159" d="M12 8h6M8 9h3M12 9h1M17 9h3M8 10h3M12 10h6M20 10h1M20 11h1M13 12h6M20 12h1M13 13h1M18 13h1M20 13h1M13 14h6M20 14h1M20 15h1M12 16h5M18 16h1M20 16h1M12 17h1M16 17h5M12 18h5M18 18h1M11 21h1M11 22h7M12 23h6" />
<path stroke="#bfce95" d="M20 18h2M20 19h2M18 20h6M18 21h6M20 22h2M20 23h2" />
<path stroke="#544e68" d="M18 22h2M22 22h2M18 23h2M22 23h2" />
</svg>