<svg xmlns="http://www.w3.org/2000/svg" viewBox="0 -0.5 32 32" shape-rendering="crispEdges">
<metadata>Made with Pixels to Svg https://codepen.io/shshaw/pen/XbxvNj</metadata>
<path stroke="#ffaa5e" d="M10 8h10M8 9h4M18 9h3M11 10h1M13 10h4M20 10h2M11 11h1M18 11h2M21 11h1M11 12h9M21 12h1M11 13h2M19 13h1M21 13h1M11 14h2M14 14h4M19 14h1M21 14h1M11 15h2M19 15h1M21 15h1M11 16h9M21 16h1M11 17h1M17 17h1M19 17h1M21 17h1M11 18h1M13 18h3M11 19h1M17 19h1M19 19h1M11 20h7M11 21h7M12 22h6" />
<path stroke="#d08159" d="M12 9h6M8 10h3M12 10h1M17 10h3M12 11h6M20 11h1M20 12h1M13 13h6M20 13h1M13 14h1M18 14h1M20 14h1M13 15h6M20 15h1M20 16h1M12 17h5M18 17h1M20 17h1M12 18h1M16 18h4M12 19h5M18 19h1M11 22h1M12 23h8" />
<path stroke="#7faf54" d="M20 18h2M20 19h2M18 20h6M18 21h6M20 22h2M20 23h2" />
<path stroke="#544e68" d="M18 22h2M22 22h2" />
</svg>