<svg xmlns="http://www.w3.org/2000/svg" viewBox="0 -0.5 32 32" shape-rendering="crispEdges">
<metadata>Made with Pixels to Svg https://codepen.io/shshaw/pen/XbxvNj</metadata>
<path stroke="#ffaa5e" d="M18 2h4M18 3h4M18 4h4M18 5h4M14 6h4M14 7h4M14 8h4M14 9h4M10 10h4M10 11h4M10 12h4M10 13h4M6 14h4M6 15h4M6 16h4M6 17h4M10 18h4M10 19h4M10 20h4M10 21h4M14 22h4M14 23h4M14 24h4M14 25h4M18 26h4M18 27h4M18 28h4M18 29h4" />
<path stroke="#d08159" d="M18 6h4M18 7h4M14 10h4M14 11h4M10 14h4M10 15h4M6 18h4M6 19h4M10 22h4M10 23h4M14 26h4M14 27h4M18 30h4M18 31h4" />
</svg>