<svg xmlns="http://www.w3.org/2000/svg" viewBox="0 -0.5 32 32" shape-rendering="crispEdges">
<metadata>Made with Pixels to Svg https://codepen.io/shshaw/pen/XbxvNj</metadata>
<path stroke="#F44336" d="M15 7h2M14 8h4M13 9h6M12 10h8M11 11h1M15 11h2M20 11h1M10 12h2M15 12h2M20 12h2M9 13h3M15 13h2M20 13h3M8 14h16M8 15h16M9 16h3M15 16h2M20 16h3M10 17h2M15 17h2M20 17h2M11 18h1M15 18h2M20 18h1M12 19h8M13 20h6M14 21h4M15 22h2" />
<path stroke="#81373E" d="M12 11h3M17 11h3M12 12h3M17 12h3M8 16h1M12 16h3M17 16h3M23 16h1M8 17h2M12 17h3M17 17h3M22 17h2M9 18h2M21 18h2M10 19h2M20 19h2M11 20h2M19 20h2M12 21h2M18 21h2M13 22h2M17 22h2M14 23h4M15 24h2" />
</svg>
