<svg xmlns="http://www.w3.org/2000/svg" viewBox="0 -0.5 32 32" shape-rendering="crispEdges">
<metadata>Made with Pixels to Svg https://codepen.io/shshaw/pen/XbxvNj</metadata>
<path stroke="#F44336" d="M15 8h2M14 9h4M13 10h6M12 11h8M11 12h1M15 12h2M20 12h1M10 13h2M15 13h2M20 13h2M9 14h3M15 14h2M20 14h3M8 15h16M8 16h16M9 17h3M15 17h2M20 17h3M10 18h2M15 18h2M20 18h2M11 19h1M15 19h2M20 19h1M12 20h8M13 21h6M14 22h4M15 23h2" />
<path stroke="#81373E" d="M12 12h3M17 12h3M8 17h1M12 17h3M17 17h3M23 17h1M9 18h1M22 18h1M10 19h1M21 19h1M11 20h1M20 20h1M12 21h1M19 21h1M13 22h1M18 22h1M14 23h1M17 23h1M15 24h2" />
</svg>
