<svg xmlns="http://www.w3.org/2000/svg" viewBox="0 -0.5 16 16" shape-rendering="crispEdges">
<metadata>Made with Pixels to Svg https://codepen.io/shshaw/pen/XbxvNj</metadata>
<path stroke="#fec679" d="M7 0h2M6 1h4M5 2h6M7 3h2M3 4h1M7 4h2M12 4h1M2 5h2M7 5h2M12 5h2M1 6h14M1 7h14M2 8h2M7 8h2M12 8h2M3 9h1M7 9h2M12 9h1M7 10h2M5 11h6M6 12h4M7 13h2" />
<path stroke="#856531" d="M5 3h2M9 3h2M5 4h2M9 4h2M1 8h1M4 8h3M9 8h3M14 8h1M1 9h2M4 9h3M9 9h3M13 9h2M2 10h2M12 10h2M3 11h1M12 11h1M5 12h1M10 12h1M5 13h2M9 13h2M6 14h4M7 15h2" />
</svg>