<svg xmlns="http://www.w3.org/2000/svg" viewBox="0 -0.5 16 16" shape-rendering="crispEdges">
<metadata>Made with Pixels to Svg https://codepen.io/shshaw/pen/XbxvNj</metadata>
<path stroke="#fa9886" d="M4 0h8M4 1h8M0 2h16M0 3h16M2 5h2M5 5h2M9 5h2M12 5h2M2 6h2M5 6h2M9 6h2M12 6h2M2 7h2M5 7h2M9 7h2M12 7h2M2 8h2M5 8h2M9 8h2M12 8h2M2 9h2M5 9h2M9 9h2M12 9h2M2 10h2M5 10h2M9 10h2M12 10h2M2 11h2M5 11h2M9 11h2M12 11h2M2 12h12M3 13h10" />
<path stroke="#81373e" d="M0 4h16M0 5h2M4 5h1M7 5h2M11 5h1M14 5h2M2 13h1M13 13h1M2 14h12M3 15h10" />
</svg>