<svg xmlns="http://www.w3.org/2000/svg" viewBox="0 -0.5 32 32" shape-rendering="crispEdges">
<metadata>Made with Pixels to Svg https://codepen.io/shshaw/pen/XbxvNj</metadata>
<path stroke="#fa9886" d="M11 8h2M19 8h2M11 9h2M19 9h2M9 10h6M17 10h6M9 11h6M17 11h6M7 12h18M7 13h18M7 14h18M7 15h18M9 16h14M9 17h14M11 18h10M11 19h10M13 20h6M13 21h6M15 22h2M15 23h2" />
<path stroke="#544e68" d="M7 16h2M23 16h2M7 17h2M23 17h2M9 18h2M21 18h2M9 19h2M21 19h2M11 20h2M19 20h2M11 21h2M19 21h2M13 22h2M17 22h2M13 23h2M17 23h2M15 24h2M15 25h2" />
</svg>