<svg xmlns="http://www.w3.org/2000/svg" viewBox="0 -0.5 32 32" shape-rendering="crispEdges">
<metadata>Made with Pixels to Svg https://codepen.io/shshaw/pen/XbxvNj</metadata>
<path stroke="#203c56" d="M10 0h12M6 2h4M22 2h4M4 4h2M12 4h8M26 4h2M12 5h8M2 6h2M8 6h4M20 6h4M28 6h2M2 7h2M8 7h4M20 7h4M28 7h2M2 8h2M6 8h2M24 8h2M28 8h2M6 9h2M24 9h2M0 10h2M6 10h2M24 10h2M30 10h2M0 11h2M6 11h2M24 11h2M30 11h2M0 12h2M4 12h2M26 12h2M30 12h2M0 13h2M4 13h2M26 13h2M30 13h2M0 14h2M4 14h2M26 14h2M30 14h2M0 15h2M4 15h2M26 15h2M30 15h2M0 16h2M4 16h2M26 16h2M30 16h2M0 17h2M4 17h2M26 17h2M30 17h2M0 18h2M4 18h2M26 18h2M30 18h2M0 19h2M30 19h2M0 20h2M6 20h2M24 20h2M30 20h2M0 21h2M6 21h2M24 21h2M30 21h2M2 22h2M6 22h2M24 22h2M28 22h2M2 23h2M28 23h2M2 24h2M8 24h4M20 24h4M28 24h2M2 25h2M28 25h2M4 26h2M12 26h8M26 26h2M4 27h2M26 27h2M6 28h4M22 28h4M6 29h4M22 29h4M10 30h12M10 31h12" />
<path stroke="#ffd4a3" d="M10 1h12M10 2h12M6 3h4M22 3h4M6 4h4M22 4h4M4 5h2M26 5h2M4 6h2M26 6h2M4 7h2M26 7h2M4 8h2M26 8h2M2 9h2M28 9h2M2 10h2M28 10h2M2 11h2M28 11h2M2 12h2M28 12h2M2 13h2M28 13h2M2 14h2M28 14h2M2 15h2M28 15h2M2 16h2M28 16h2M2 17h2M28 17h2M2 18h2M28 18h2M4 19h2M26 19h2M4 20h2M26 20h2M4 21h2M26 21h2M4 22h2M26 22h2M6 23h2M24 23h2M6 24h2M24 24h2M8 25h4M20 25h4M8 26h4M20 26h4M12 27h8M12 28h8" />
<path stroke="#d08159" d="M10 3h12M10 4h2M20 4h2M6 5h6M20 5h6M6 6h2M24 6h2M6 7h2M24 7h2M4 9h2M26 9h2M4 10h2M26 10h2M4 11h2M26 11h2M2 19h2M28 19h2M2 20h2M28 20h2M2 21h2M28 21h2M4 23h2M26 23h2M4 24h2M26 24h2M4 25h4M24 25h4M6 26h2M24 26h2M6 27h6M20 27h6M10 28h2M20 28h2M10 29h12" />
<path stroke="#544e68" d="M12 6h8M8 8h4M20 8h4M8 9h1M23 9h1M8 10h1M23 10h1M8 11h1M23 11h1M6 12h1M25 12h1M6 13h1M25 13h1M6 14h1M25 14h1M6 15h1M25 15h1M6 16h1M25 16h1M6 17h1M25 17h1M6 18h1M25 18h1M6 19h1M25 19h1M8 20h1M23 20h1M8 21h1M23 21h1M8 22h1M23 22h1M8 23h4M20 23h4M12 25h8" />
<path stroke="#8d697a" d="M12 7h8M12 8h8M9 9h14M9 10h14M9 11h14M7 12h18M7 13h18M7 14h18M7 15h18M7 16h18M7 17h18M7 18h18M7 19h18M9 20h14M9 21h14M9 22h14M12 23h8M12 24h8" />
</svg>