<svg xmlns="http://www.w3.org/2000/svg" viewBox="0 -0.5 32 32" shape-rendering="crispEdges">
<metadata>Made with Pixels to Svg https://codepen.io/shshaw/pen/XbxvNj</metadata>
<path stroke="#ffaa5e" d="M11 9h2M19 9h2M11 10h2M19 10h2M9 11h2M13 11h2M17 11h2M21 11h2M9 12h2M13 12h2M17 12h2M21 12h2M7 13h2M15 13h2M23 13h2M7 14h2M15 14h2M23 14h2M7 15h2M23 15h2M7 16h2M23 16h2M9 17h2M21 17h2M9 18h2M21 18h2M11 19h2M19 19h2M11 20h2M19 20h2M13 21h2M17 21h2M13 22h2M17 22h2M15 23h2M15 24h2" />
<path stroke="#d08159" d="M11 11h2M19 11h2M9 13h2M13 13h2M17 13h2M21 13h2M15 15h2M7 17h2M23 17h2M9 19h2M21 19h2M11 21h2M19 21h2M13 23h2M17 23h2M15 25h2" />
</svg>